<?xml version="1.0" encoding="iso-8859-1"?>
<!-- Uploaded to: SVG Repo, www.svgrepo.com, Generator: SVG Repo Mixer Tools -->
<svg fill="#f0F0F0" height="800px" width="800px" version="1.1" id="Layer_1" xmlns="http://www.w3.org/2000/svg" xmlns:xlink="http://www.w3.org/1999/xlink" 
	 viewBox="0 0 512 512" xml:space="preserve">
<g>
	<g>
		<g>
			<path d="M473.025,123.581c9.864,0,17.86-7.997,17.86-17.86V17.86c0-9.864-7.997-17.86-17.86-17.86h-87.846
				c-9.864,0-17.86,7.997-17.86,17.86v26.063H144.683V17.86c0-9.864-7.997-17.86-17.86-17.86H38.975
				c-9.864,0-17.86,7.997-17.86,17.86v87.86c0,9.864,7.997,17.86,17.86,17.86h26.063V388.42H38.975
				c-9.864,0-17.86,7.997-17.86,17.86v87.859c0,9.864,7.997,17.86,17.86,17.86h87.847c9.864,0,17.86-7.997,17.86-17.86v-26.063
				h222.634v26.063c0,9.864,7.997,17.86,17.86,17.86h87.846c9.864,0,17.86-7.997,17.86-17.86v-87.86
				c0-9.864-7.997-17.86-17.86-17.86h-26.063V123.581H473.025z M56.836,87.86V35.721h52.126c0,5.516,0,46.612,0,52.139
				C103.469,87.86,62.36,87.86,56.836,87.86z M108.962,476.279H56.836V424.14c5.49,0,46.603,0,52.126,0
				C108.962,429.66,108.962,470.759,108.962,476.279z M385.178,388.419c-9.864,0-17.86,7.997-17.86,17.86v26.076H144.683v-26.076
				c0-9.864-7.997-17.86-17.86-17.86h-26.063V123.581h26.063c9.864,0,17.86-7.997,17.86-17.86V79.645h222.634v26.076
				c0,9.864,7.997,17.86,17.86,17.86h26.063v264.837H385.178z M455.164,424.14v52.139h-52.125c0-5.516,0-46.611,0-52.139
				C410.58,424.14,447.594,424.14,455.164,424.14z M403.038,87.86c0-5.524,0-46.634,0-52.139h52.125V87.86
				C447.623,87.86,410.609,87.86,403.038,87.86z"/>
			<path d="M336.492,128.511H175.508c-9.864,0-17.86,7.997-17.86,17.86v101.602c0,9.572,7.731,17.86,17.945,17.86h160.9
				c9.864,0,17.86-7.997,17.86-17.86V146.371C354.353,136.413,346.192,128.511,336.492,128.511z M193.368,164.232h81.36
				l-81.36,51.349V164.232z M318.631,230.113h-81.36l81.36-51.349V230.113z"/>
			<path d="M336.492,288.313H175.508c-9.864,0-17.86,7.997-17.86,17.86c0,9.864,7.997,17.86,17.86,17.86h160.985
				c9.864,0,17.86-7.997,17.86-17.86C354.353,296.31,346.356,288.313,336.492,288.313z"/>
			<path d="M336.492,347.768H175.508c-9.864,0-17.86,7.997-17.86,17.86c0,9.864,7.997,17.86,17.86,17.86h160.985
				c9.864,0,17.86-7.997,17.86-17.86S346.356,347.768,336.492,347.768z"/>
		</g>
	</g>
</g>
</svg>