<?xml version="1.0" encoding="iso-8859-1"?>
<!-- Uploaded to: SVG Repo, www.svgrepo.com, Generator: SVG Repo Mixer Tools -->
<svg fill="#f0F0F0" height="800px" width="800px" version="1.1" id="Layer_1" xmlns="http://www.w3.org/2000/svg" xmlns:xlink="http://www.w3.org/1999/xlink" 
	 viewBox="0 0 512 512" xml:space="preserve">
<g>
	<g>
		<g>
			<path d="M470.326,13.676c-17.073,0-413.528,0-428.651,0C18.695,13.676,0,32.371,0,55.35v290.097
				c0,22.979,18.695,41.674,41.674,41.674h147.094l-18.306,75.482h-22.614c-9.864,0-17.86,7.997-17.86,17.86
				c0,9.864,7.997,17.86,17.86,17.86c8.684,0,207.681,0,216.302,0c9.864,0,17.86-7.997,17.86-17.86c0-9.864-7.997-17.86-17.86-17.86
				h-22.614l-18.306-75.482h147.094c22.979,0,41.674-18.695,41.674-41.674V55.35C512,32.37,493.305,13.676,470.326,13.676z
				 M106.96,49.397H405.04v230.65H106.96V49.397z M35.721,55.35c0-3.284,2.671-5.953,5.953-5.953h29.565v230.65H35.721V55.35z
				 M207.218,462.602l18.306-75.482h60.951l18.306,75.482H207.218z M476.279,345.446c0,3.283-2.671,5.953-5.953,5.953
				c-6.067,0-421.547,0-428.651,0c-3.283,0-5.953-2.671-5.953-5.953v-29.679c16.01,0,425.159,0,440.558,0V345.446z M476.279,280.047
				h-35.518V49.397h29.565c3.283,0,5.953,2.67,5.953,5.953V280.047z"/>
			<path d="M374.041,70.176H137.959c-9.864,0-17.86,7.997-17.86,17.86v58.478c0,9.864,7.997,17.86,17.86,17.86h236.082
				c9.864,0,17.86-7.997,17.86-17.86V88.036C391.901,78.172,383.905,70.176,374.041,70.176z M356.181,128.653H155.819v-22.757
				h200.361V128.653z"/>
			<path d="M239.273,178.156H137.959c-9.864,0-17.86,7.997-17.86,17.86v45.388c0,9.864,7.997,17.86,17.86,17.86h101.314
				c9.864,0,17.86-7.997,17.86-17.86v-45.388C257.134,186.153,249.137,178.156,239.273,178.156z M221.413,223.545h-65.593v-9.667
				h65.593V223.545z"/>
			<path d="M374.041,178.156h-81.87c-9.864,0-17.86,7.997-17.86,17.86c0,9.864,7.997,17.86,17.86,17.86h81.87
				c9.864,0,17.86-7.997,17.86-17.86C391.901,186.153,383.905,178.156,374.041,178.156z"/>
			<path d="M374.041,223.545h-81.87c-9.864,0-17.86,7.997-17.86,17.86c0,9.864,7.997,17.86,17.86,17.86h81.87
				c9.864,0,17.86-7.997,17.86-17.86C391.901,231.541,383.905,223.545,374.041,223.545z"/>
		</g>
	</g>
</g>
</svg>